<?xml version="1.0" encoding="UTF-8"?>
<svg width="300px" height="300px" viewBox="0 0 300 300" version="1.1" xmlns="http://www.w3.org/2000/svg" xmlns:xlink="http://www.w3.org/1999/xlink">
    <!-- Generator: Sketch 48.2 (47327) - http://www.bohemiancoding.com/sketch -->
    <title>ikona</title>
    <desc>Created with Sketch.</desc>
    <defs></defs>
    <g id="Desktop" stroke="none" stroke-width="1" fill="none" fill-rule="evenodd" transform="translate(-654.000000, -114.000000)">
        <g id="ikona" transform="translate(654.000000, 114.000000)" stroke="#E10000" stroke-width="2">
            <rect id="Rectangle" x="1" y="1" width="298" height="298"></rect>
            <g id="covjeculjak" transform="translate(67.058824, 67.058824)">
                <path d="M82.2782235,0 C82.2058289,0 82.1334343,0.0102932875 82.0580848,0.0132342268 C81.9871676,0.0102932875 81.914773,0 81.8394235,0 C81.0342181,0 80.2437871,0.0999919361 79.4474463,0.163222131 C78.9362517,0.202924812 78.4339217,0.205865751 77.9242045,0.266155006 C77.6405358,0.304387217 77.3672092,0.364676473 77.0864954,0.407320093 C56.2752594,3.32179094 35.2941176,23.2878278 35.2941176,51.1752847 C35.2941176,72.0985974 47.1077371,91.9528786 61.7994118,102.1947 C67.7136087,106.760508 74.5423417,109.411765 81.8394235,109.411765 C81.914773,109.411765 81.9871676,109.394119 82.0580848,109.394119 C82.1334343,109.394119 82.2058289,109.411765 82.2782235,109.411765 C89.5753054,109.411765 96.4025609,106.760508 102.318235,102.1947 C117.012865,91.9528786 128.823529,72.0985974 128.823529,51.1752847 C128.823529,23.2878278 107.845343,3.32179094 87.0311517,0.407320093 C86.7533928,0.364676473 86.4800662,0.304387217 86.1963975,0.266155006 C85.6866803,0.205865751 85.1843503,0.202924812 84.6731556,0.163222131 C83.87386,0.0999919361 83.0863838,0 82.2782235,0 Z" id="Fill-24" fill-opacity="0" fill="#000000"></path>
                <path d="M129.462369,110.866791 C124.933113,109.518407 120.375595,108.552935 115.791303,107.734965 C113.630051,109.694219 111.395916,111.486601 109.106744,113.098702 C101.553521,118.970505 92.8267068,122.369029 83.5064039,122.369029 C83.4126951,122.369029 83.3204738,122.35264 83.2237902,122.35264 C83.1345438,122.35264 83.0348852,122.369029 82.9456388,122.369029 C73.622361,122.369029 64.9014966,118.970505 57.3452983,113.098702 C55.0159663,111.462762 52.7491067,109.637602 50.5536444,107.647059 C45.8146586,108.479928 41.1024467,109.47222 36.4199836,110.866791 C11.3833831,118.329837 0,132.531823 0,159.323693 C0,159.323693 0.136844537,159.350512 0.404583849,159.3967 C4.43703537,160.117825 38.0725301,165.882353 82.6630251,165.882353 L82.6749246,165.882353 C82.7656585,165.882353 82.8489552,165.882353 82.939689,165.882353 C83.0333978,165.882353 83.1137196,165.882353 83.2074283,165.882353 L83.216353,165.882353 C127.809823,165.882353 161.445318,160.117825 165.474794,159.3967 C165.742534,159.350512 165.882353,159.323693 165.882353,159.323693 C165.882353,132.531823 154.495995,118.329837 129.462369,110.866791 Z" id="Stroke-25" stroke-linecap="round" stroke-linejoin="round"></path>
            </g>
        </g>
    </g>
</svg>