<svg width="75" height="80" xmlns="http://www.w3.org/2000/svg"><g fill="none" fill-rule="evenodd"><path fill="#87613E" d="M27.169 39.149h20.376v25.532H27.169z"/><path d="M56.035 18.723V32.34c0 10.324-8.38 18.724-18.678 18.724-10.299 0-18.679-8.4-18.679-18.724V18.723h37.357z" fill="#A67C52"/><path d="M74.714 73.207c0-2.829-2.087-6.037-4.67-7.17l-22.5-9.867c-2.866 2.128-6.374 3.404-10.188 3.404-3.814 0-7.322-1.276-10.158-3.404L4.676 66.037C2.093 67.168 0 70.382 0 73.207v5.086C0 79.236.764 80 1.7 80h71.313c.94 0 1.7-.745 1.7-1.707v-5.086z" fill="#FFF"/><path d="M18.678 18.722c0-5.64 4.305-11.753 9.601-13.648L40.854.572c.882-.316 1.935.106 2.35.939l2.643 5.298c5.627 0 10.188 4.583 10.188 10.212v10.213c0-4.7-3.801-8.51-8.49-8.51H27.169c-4.69 0-8.49 3.81-8.49 8.51v-8.512z" fill="#444"/><path fill="#FCB997" d="M32.263 80l3.396-10.213h3.396L42.45 80zm3.396-10.213h3.396l3.71-3.718a1.705 1.705 0 00-.182-2.566l-4.207-3.163a1.695 1.695 0 00-2.038 0l-4.207 3.163a1.705 1.705 0 00-.182 2.566l3.71 3.718z"/><path d="M30.565 80l-3.366-23.83-22.523 9.867C2.093 67.168 0 70.382 0 73.207v5.086C0 79.236.766 80 1.69 80h28.875zm13.584 0l3.365-23.83 22.524 9.867c2.582 1.131 4.676 4.345 4.676 7.17v5.086c0 .943-.766 1.707-1.69 1.707H44.15z" fill="#444"/></g></svg>