<svg width="75" height="80" xmlns="http://www.w3.org/2000/svg"><g fill="none" fill-rule="evenodd"><path d="M16.484 69.29V23.92c0-11.634 9.549-21.064 21.328-21.064 11.78 0 21.328 9.43 21.328 21.064v45.37H16.484z" fill="#B34F04"/><path fill="#E0B38C" d="M27.968 40.124h19.687v24.305H27.968z"/><path d="M48.75 57.327c-3.165 1.965-7.039 2.143-11.25 2.143s-8.085-.178-11.216-2.143L6.219 65.722C2.407 67.319 0 70.584 0 74.154v3.593c0 .873.842 1.58 1.891 1.58H73.11c1.044 0 1.891-.697 1.891-1.58v-3.593c0-3.57-2.408-6.835-6.22-8.432l-20.03-8.395z" fill="#98EBE4"/><path d="M19.765 28.781v3.241c0 9.828 8.097 17.824 18.047 17.824 9.95 0 18.047-7.996 18.047-17.824v-3.24c0-2.685-2.204-4.862-4.922-4.862a14.787 14.787 0 01-13.125-7.895 14.787 14.787 0 01-13.125 7.895c-2.718 0-4.922 2.177-4.922 4.861z" fill="#E6C9B0"/><path d="M23.926 58.335l3.194 7.288c.42 1.014 1.717 1.332 2.569.63l8.123-6.685a16.452 16.452 0 01-9.814-3.24l-4.072 2.007zm23.73-2.008c-2.77 2.026-6.159 3.241-9.844 3.241l8.123 6.686c.852.701 2.149.383 2.569-.631l3.198-7.297-4.046-1.999z" fill="#FFF"/><path d="M22.339 5.712C19.458 9.2 17.53 16.806 17.53 16.806h40.482s-1.928-8.118-4.82-11.034" fill="#444"/><path d="M40.765 10.301c-1.63.305-4.262.306-5.9 0L11.127 5.87c-1.629-.304-1.638-.796 0-1.102L34.865.335c1.63-.304 4.262-.306 5.9 0l24.72 4.616c1.087.203 1.08.533 0 .735L40.765 10.3zM10.973 14.28l1.95 13.38c.16 1.091-.607 1.976-1.714 1.976h-.471c-1.106 0-1.873-.892-1.715-1.976l1.95-13.38z" fill="#555"/><path d="M10.973 17.808V5.713" stroke="#555" stroke-linecap="round" stroke-linejoin="round"/></g></svg>