<svg width="75" height="80" xmlns="http://www.w3.org/2000/svg"><g fill="none" fill-rule="evenodd"><path fill="#EAC3A2" d="M27.234 39.149H47.66v25.532H27.234z"/><path d="M56.17 18.723V32.34c0 10.324-8.4 18.724-18.723 18.724-10.324 0-18.724-8.4-18.724-18.724V18.723H56.17z" fill="#F1D9C5"/><path d="M74.894 73.207c0-2.829-2.092-6.037-4.682-7.17L47.66 56.17c-2.874 2.128-6.39 3.404-10.213 3.404a16.93 16.93 0 01-10.182-3.404L4.687 66.037C2.098 67.168 0 70.382 0 73.207v5.086C0 79.236.766 80 1.705 80h71.484c.941 0 1.705-.745 1.705-1.707v-5.086z" fill="#97CFFC"/><path d="M18.723 18.722c0-5.64 4.316-11.753 9.624-13.648L40.953.572c.884-.316 1.94.106 2.356.939l2.648 5.298c5.64 0 10.213 4.583 10.213 10.212v10.213c0-4.7-3.81-8.51-8.51-8.51H27.234a8.51 8.51 0 00-8.51 8.51v-8.512z" fill="#C6A279"/><path d="M37.447 62.979c5.283 0 10.13-1.858 13.934-4.948l-3.721-1.86c-2.874 2.127-6.39 3.403-10.213 3.403a16.93 16.93 0 01-10.182-3.404l-3.743 1.868a22.027 22.027 0 0013.925 4.94z" fill="#95CEFE"/></g></svg>