<svg width="75" height="80" xmlns="http://www.w3.org/2000/svg"><g fill="none" fill-rule="evenodd"><path d="M70.308 65.88L47.725 56l-10.23 10.227L27.302 56 4.693 65.88C2.101 67.013 0 70.232 0 73.06v5.093c0 .944.767 1.71 1.707 1.71H73.29c.943 0 1.708-.747 1.708-.003v-6.8c0-2.832-2.095-6.045-4.689-7.18z" fill="#0CB"/><circle fill="#DDD" cx="23" cy="71" r="5"/><path d="M23 70.863V60a8.002 8.002 0 018.001-8H44a7.996 7.996 0 018 8.007v11.151" stroke="#777" stroke-width="2"/><path fill="#EAC3A2" d="M27.269 56V39.203h20.453V56L37.5 66.179z"/><path d="M56.245 18.75v13.635c0 10.337-8.412 18.749-18.75 18.749-10.337 0-18.749-8.412-18.749-18.75V18.75h37.499z" fill="#F1D9C5"/><path d="M18.746 18.747c0-5.647 4.322-11.768 9.637-13.666L41.006.572c.885-.316 1.942.107 2.36.941l2.652 5.305c5.648 0 10.227 4.59 10.227 10.227V27.27a8.522 8.522 0 00-8.523-8.522H27.27a8.522 8.522 0 00-8.523 8.522v-8.524z" fill="#C6A279"/><circle fill="#F4F4F4" cx="23" cy="71" r="3"/><path d="M58 79.86V77a6 6 0 10-12 0v2.86" stroke="#777" stroke-width="2"/></g></svg>